<svg version="1.0" xmlns="http://www.w3.org/2000/svg" width="200px" height="200px"
              viewBox="0 0 200.000000 200.000000" preserveAspectRatio="xMidYMid meet">

              <g transform="translate(0.000000,200.000000) scale(0.100000,-0.100000)" fill="none" stroke="#ff385c">
                <path d="M285 1918 c-101 -27 -193 -122 -215 -224 -7 -33 -10 -270 -8 -719 l3
-670 24 -49 c31 -62 82 -114 146 -146 l50 -25 705 0 705 0 50 25 c64 32 115
84 146 146 l24 49 3 670 c2 449 -1 686 -8 719 -22 105 -115 198 -222 224 -62
16 -1344 15 -1403 0z m686 -475 c18 -32 53 -92 79 -133 26 -41 59 -95 74 -120
14 -25 32 -54 39 -65 23 -37 62 -101 128 -210 l66 -110 106 -3 c59 -1 107 0
107 2 0 3 -22 40 -48 83 -27 43 -75 122 -106 175 -31 54 -61 100 -65 102 -4 3
-20 -17 -36 -45 -16 -27 -32 -49 -36 -49 -4 0 -21 8 -38 18 -29 16 -43 52 -21
52 6 0 10 4 10 10 0 17 112 191 121 188 9 -3 109 -167 109 -180 0 -4 5 -8 10
-8 6 0 10 -7 10 -15 0 -8 9 -24 20 -35 11 -11 20 -24 20 -29 0 -5 18 -37 40
-70 22 -33 40 -62 40 -65 0 -7 101 -169 116 -187 32 -37 21 -39 -198 -39
l-213 1 -36 62 c-66 114 -131 221 -175 289 -24 36 -44 71 -44 77 0 6 -4 11 -8
11 -4 0 -13 12 -20 28 -6 15 -23 45 -37 67 -14 22 -31 50 -37 63 -6 12 -14 22
-17 22 -8 0 -81 -118 -81 -131 0 -15 -34 -9 -57 10 -13 11 -23 24 -23 31 0 18
150 260 162 260 3 0 21 -26 39 -57z m-251 -223 c0 -5 5 -10 10 -10 6 0 10 -5
10 -10 0 -6 16 -36 35 -66 19 -30 35 -59 35 -64 0 -6 5 -10 10 -10 6 0 10 -7
10 -15 0 -8 5 -15 10 -15 6 0 10 -5 10 -12 0 -15 140 -238 149 -238 7 0 28 36
68 112 20 38 27 41 62 21 40 -23 39 -44 -7 -115 -9 -15 -39 -65 -67 -112 -27
-47 -53 -86 -56 -86 -5 0 -20 23 -185 295 -43 72 -82 132 -86 133 -4 2 -8 8
-8 13 0 5 -17 37 -39 70 l-38 61 -93 -153 c-51 -85 -102 -169 -112 -186 l-20
-33 191 0 191 0 0 -45 0 -45 -265 0 c-152 0 -265 4 -265 9 0 13 53 115 62 119
5 2 8 10 8 18 0 8 5 14 10 14 6 0 10 4 10 10 0 5 24 47 53 92 30 46 56 88 58
93 2 6 42 72 88 148 l85 138 38 -60 c21 -33 38 -65 38 -71z" />
              </g>
            </svg>
